<svg height="512" viewBox="0 0 512 512" width="512" xmlns="http://www.w3.org/2000/svg"><g><path d="m416 8h-320a48.051 48.051 0 0 0 -48 48v440a8 8 0 0 0 8 8h320a8 8 0 0 0 8-8v-248h72a8 8 0 0 0 8-8v-184a48.051 48.051 0 0 0 -48-48zm-48 48v432h-304v-432a32.036 32.036 0 0 1 32-32h284.26a47.8 47.8 0 0 0 -12.26 32zm80 176h-64v-176a32 32 0 0 1 64 0z"/><path d="m336 184h-208a8 8 0 0 0 0 16h208a8 8 0 0 0 0-16z"/><path d="m104 184h-8a8 8 0 0 0 0 16h8a8 8 0 0 0 0-16z"/><path d="m336 208h-208a8 8 0 0 0 0 16h208a8 8 0 0 0 0-16z"/><path d="m104 208h-8a8 8 0 0 0 0 16h8a8 8 0 0 0 0-16z"/><path d="m336 232h-208a8 8 0 0 0 0 16h208a8 8 0 0 0 0-16z"/><path d="m104 232h-8a8 8 0 0 0 0 16h8a8 8 0 0 0 0-16z"/><path d="m336 280h-208a8 8 0 0 0 0 16h208a8 8 0 0 0 0-16z"/><path d="m104 280h-8a8 8 0 0 0 0 16h8a8 8 0 0 0 0-16z"/><path d="m336 304h-208a8 8 0 0 0 0 16h208a8 8 0 0 0 0-16z"/><path d="m104 304h-8a8 8 0 0 0 0 16h8a8 8 0 0 0 0-16z"/><path d="m336 328h-208a8 8 0 0 0 0 16h208a8 8 0 0 0 0-16z"/><path d="m104 328h-8a8 8 0 0 0 0 16h8a8 8 0 0 0 0-16z"/><path d="m336 408a8 8 0 0 0 0-16h-8a8 8 0 0 0 -16 0h-8a8 8 0 0 0 -8 8v24a8 8 0 0 0 8 8h24v8h-24a8 8 0 0 0 0 16h8a8 8 0 0 0 16 0h8a8 8 0 0 0 8-8v-24a8 8 0 0 0 -8-8h-24v-8z"/><path d="m336 88h-240a8 8 0 0 0 -8 8v48a8 8 0 0 0 8 8h240a8 8 0 0 0 8-8v-48a8 8 0 0 0 -8-8zm-8 48h-224v-32h224z"/></g></svg>