<svg id="Capa_1" enable-background="new 0 0 512 512" height="512" viewBox="0 0 512 512" width="512" xmlns="http://www.w3.org/2000/svg"><g><path d="m504.5 217.44h-23.56v-23.56c0-4.142-3.357-7.5-7.5-7.5h-23.567v-116.754c0-4.142-3.357-7.5-7.5-7.5h-23.563v-54.626c0-4.142-3.357-7.5-7.5-7.5h-235c-4.143 0-7.5 3.358-7.5 7.5s3.357 7.5 7.5 7.5h227.5v171.38h-295.62v-171.38h35.439c4.143 0 7.5-3.358 7.5-7.5s-3.357-7.5-7.5-7.5h-42.939c-4.143 0-7.5 3.358-7.5 7.5v54.626h-23.563c-4.143 0-7.5 3.358-7.5 7.5v116.754h-23.567c-4.143 0-7.5 3.358-7.5 7.5v23.56h-23.56c-4.143 0-7.5 3.358-7.5 7.5v217.43c0 4.142 3.357 7.5 7.5 7.5h85.69v54.63c0 4.142 3.357 7.5 7.5 7.5h310.62c4.143 0 7.5-3.358 7.5-7.5v-54.63h85.69c4.143 0 7.5-3.358 7.5-7.5v-217.43c0-4.142-3.357-7.5-7.5-7.5zm-85.688-140.314h16.062v109.249h-16.062zm-341.685 0h16.062v109.249h-16.062zm341.683 357.744v-54.62c0-4.142-3.357-7.5-7.5-7.5h-248.09c-4.143 0-7.5 3.358-7.5 7.5s3.357 7.5 7.5 7.5h240.59v109.25h-295.62v-109.25h22.34c4.143 0 7.5-3.358 7.5-7.5s-3.357-7.5-7.5-7.5h-29.84c-4.143 0-7.5 3.358-7.5 7.5v54.62h-16.06v-78.18h357.74v78.18zm78.19 0h-47.13v-85.68c0-4.142-3.357-7.5-7.5-7.5h-372.74c-4.143 0-7.5 3.358-7.5 7.5v85.68h-47.13v-202.43h271.25c4.143 0 7.5-3.358 7.5-7.5s-3.357-7.5-7.5-7.5h-240.19v-16.06h419.88v16.06h-147.01c-4.143 0-7.5 3.358-7.5 7.5s3.357 7.5 7.5 7.5h178.07z"/><path d="m54.096 248.5c-12.699 0-23.031 10.332-23.031 23.031s10.332 23.031 23.031 23.031 23.031-10.332 23.031-23.031-10.332-23.031-23.031-23.031zm0 31.062c-4.429 0-8.031-3.603-8.031-8.031s3.603-8.031 8.031-8.031 8.031 3.603 8.031 8.031-3.603 8.031-8.031 8.031z"/><path d="m116.22 248.5c-12.699 0-23.031 10.332-23.031 23.031s10.332 23.031 23.031 23.031 23.031-10.332 23.031-23.031-10.332-23.031-23.031-23.031zm0 31.062c-4.429 0-8.031-3.603-8.031-8.031s3.603-8.031 8.031-8.031 8.031 3.603 8.031 8.031-3.603 8.031-8.031 8.031z"/><path d="m380.249 248.5c-4.143 0-7.5 3.358-7.5 7.5v31.062c0 4.142 3.357 7.5 7.5 7.5h93.187c4.143 0 7.5-3.358 7.5-7.5v-31.062c0-4.142-3.357-7.5-7.5-7.5zm85.687 31.062h-78.187v-16.062h78.187z"/><path d="m319.667 465.936h-127.334c-4.143 0-7.5 3.358-7.5 7.5s3.357 7.5 7.5 7.5h127.334c4.143 0 7.5-3.358 7.5-7.5s-3.357-7.5-7.5-7.5z"/><path d="m139.782 411.311c0 4.142 3.357 7.5 7.5 7.5h217.436c4.143 0 7.5-3.358 7.5-7.5s-3.357-7.5-7.5-7.5h-217.436c-4.142 0-7.5 3.358-7.5 7.5z"/></g></svg>